<svg xmlns="http://www.w3.org/2000/svg" width="1920" height="1080" viewBox="0 0 1920 1080">
  <defs>
    <radialGradient id="g" cx="50%" cy="35%" r="75%">
      <stop offset="0" stop-color="#00ffb0" stop-opacity="0.12"/>
      <stop offset="0.55" stop-color="#00ffb0" stop-opacity="0.04"/>
      <stop offset="1" stop-color="#000000" stop-opacity="0.96"/>
    </radialGradient>
    <pattern id="grid" width="80" height="80" patternUnits="userSpaceOnUse">
      <path d="M80 0H0V80" fill="none" stroke="#00ffb0" stroke-opacity="0.10" stroke-width="2"/>
    </pattern>
    <filter id="glow" x="-30%" y="-30%" width="160%" height="160%">
      <feGaussianBlur stdDeviation="4" result="b"/>
      <feColorMatrix in="b" type="matrix" values="1 0 0 0 0  0 1 0 0 0.9  0 0 1 0 0.7  0 0 0 0.7 0" result="g"/>
      <feMerge>
        <feMergeNode in="g"/>
        <feMergeNode in="SourceGraphic"/>
      </feMerge>
    </filter>
  </defs>

  <rect width="1920" height="1080" fill="#040706"/>
  <rect width="1920" height="1080" fill="url(#g)"/>
  <rect width="1920" height="1080" fill="url(#grid)" opacity="0.85"/>

  <!-- floating particles -->
  <g fill="#00ffb0" opacity="0.35">
    <circle cx="220" cy="220" r="3"/>
    <circle cx="380" cy="420" r="2"/>
    <circle cx="640" cy="260" r="2"/>
    <circle cx="760" cy="520" r="3"/>
    <circle cx="1080" cy="260" r="2"/>
    <circle cx="1280" cy="430" r="3"/>
    <circle cx="1460" cy="300" r="2"/>
    <circle cx="1620" cy="520" r="3"/>
  </g>

  <!-- lab bench silhouette -->
  <g opacity="0.45">
    <rect x="0" y="800" width="1920" height="280" fill="#000"/>
    <rect x="0" y="770" width="1920" height="10" fill="#00ffb0" opacity="0.08"/>
  </g>

  <!-- beakers -->
  <g filter="url(#glow)" opacity="0.85">
    <path d="M260 760h68v-22h-16V640h-36v98h-16z" fill="#00ffb0" fill-opacity="0.08" stroke="#00ffb0" stroke-opacity="0.25" stroke-width="3"/>
    <path d="M280 700c18 10 34 10 52 0v42h-52z" fill="#00ffb0" fill-opacity="0.14"/>

    <path d="M1580 760h78v-18h-18V620h-42v122h-18z" fill="#00ffb0" fill-opacity="0.08" stroke="#00ffb0" stroke-opacity="0.25" stroke-width="3"/>
    <path d="M1602 690c20 12 38 12 56 0v52h-56z" fill="#00ffb0" fill-opacity="0.13"/>
  </g>

  <!-- subtle text watermark -->
  <g opacity="0.14" filter="url(#glow)">
    <text x="90" y="140" font-family="monospace" font-size="36" fill="#00ffb0">XYZ Labs • VIP LAB AREA</text>
    <text x="90" y="182" font-family="monospace" font-size="18" fill="#00ffb0">gateway demo wallpaper (svg)</text>
  </g>
</svg>
